<mxfile host="drawio-plugin" modified="2022-11-26T06:12:48.665Z" agent="5.0 (X11; Linux x86_64) AppleWebKit/537.36 (KHTML, like Gecko) Chrome/97.0.4692.45 Safari/537.36" etag="7LXz07TnG5SnH7LhcpEf" version="20.5.3" type="embed"><diagram id="bWvJsYQMbmToKX30g4wE" name="Page-1"><mxGraphModel dx="1377" dy="730" grid="1" gridSize="10" guides="1" tooltips="1" connect="1" arrows="1" fold="1" page="1" pageScale="1" pageWidth="827" pageHeight="1169" math="0" shadow="0"><root><mxCell id="0"/><mxCell id="1" parent="0"/><mxCell id="21" style="edgeStyle=orthogonalEdgeStyle;rounded=0;orthogonalLoop=1;jettySize=auto;html=1;entryX=0;entryY=0.5;entryDx=0;entryDy=0;" parent="1" source="13" target="14" edge="1"><mxGeometry relative="1" as="geometry"/></mxCell><mxCell id="24" style="edgeStyle=orthogonalEdgeStyle;rounded=0;orthogonalLoop=1;jettySize=auto;html=1;entryX=0.5;entryY=0;entryDx=0;entryDy=0;" parent="1" source="14" target="23" edge="1"><mxGeometry relative="1" as="geometry"><Array as="points"><mxPoint x="160" y="150"/><mxPoint x="160" y="150"/></Array></mxGeometry></mxCell><mxCell id="13" value="oms driver init" style="rounded=1;whiteSpace=wrap;html=1;arcSize=24;" parent="1" vertex="1"><mxGeometry x="10" y="80" width="70" height="40" as="geometry"/></mxCell><mxCell id="22" style="edgeStyle=orthogonalEdgeStyle;rounded=0;orthogonalLoop=1;jettySize=auto;html=1;entryX=0;entryY=0.5;entryDx=0;entryDy=0;" parent="1" source="14" target="15" edge="1"><mxGeometry relative="1" as="geometry"/></mxCell><mxCell id="14" value="Create &lt;br&gt;Flask app" style="rounded=1;whiteSpace=wrap;html=1;" parent="1" vertex="1"><mxGeometry x="120" y="80" width="80" height="40" as="geometry"/></mxCell><mxCell id="26" style="edgeStyle=orthogonalEdgeStyle;rounded=0;orthogonalLoop=1;jettySize=auto;html=1;entryX=0;entryY=0.5;entryDx=0;entryDy=0;" parent="1" source="15" target="25" edge="1"><mxGeometry relative="1" as="geometry"><Array as="points"><mxPoint x="320" y="340"/></Array></mxGeometry></mxCell><mxCell id="27" style="edgeStyle=orthogonalEdgeStyle;rounded=0;orthogonalLoop=1;jettySize=auto;html=1;entryX=0;entryY=0.5;entryDx=0;entryDy=0;" parent="1" source="15" target="16" edge="1"><mxGeometry relative="1" as="geometry"/></mxCell><mxCell id="28" style="edgeStyle=orthogonalEdgeStyle;rounded=0;orthogonalLoop=1;jettySize=auto;html=1;entryX=-0.035;entryY=0.56;entryDx=0;entryDy=0;entryPerimeter=0;" parent="1" source="15" target="17" edge="1"><mxGeometry relative="1" as="geometry"/></mxCell><mxCell id="41" style="edgeStyle=orthogonalEdgeStyle;rounded=0;orthogonalLoop=1;jettySize=auto;html=1;entryX=0;entryY=0.5;entryDx=0;entryDy=0;" parent="1" source="15" target="35" edge="1"><mxGeometry relative="1" as="geometry"/></mxCell><mxCell id="15" value="AppSchaduler" style="rounded=1;whiteSpace=wrap;html=1;" parent="1" vertex="1"><mxGeometry x="240" y="80" width="120" height="40" as="geometry"/></mxCell><mxCell id="32" style="edgeStyle=orthogonalEdgeStyle;rounded=0;orthogonalLoop=1;jettySize=auto;html=1;entryX=0;entryY=0.5;entryDx=0;entryDy=0;" parent="1" source="16" target="29" edge="1"><mxGeometry relative="1" as="geometry"/></mxCell><mxCell id="33" style="edgeStyle=orthogonalEdgeStyle;rounded=0;orthogonalLoop=1;jettySize=auto;html=1;entryX=0;entryY=0.5;entryDx=0;entryDy=0;" parent="1" source="16" target="30" edge="1"><mxGeometry relative="1" as="geometry"/></mxCell><mxCell id="34" style="edgeStyle=orthogonalEdgeStyle;rounded=0;orthogonalLoop=1;jettySize=auto;html=1;entryX=0;entryY=0.5;entryDx=0;entryDy=0;" parent="1" source="16" target="31" edge="1"><mxGeometry relative="1" as="geometry"/></mxCell><mxCell id="16" value="oms1" style="rounded=1;whiteSpace=wrap;html=1;" parent="1" vertex="1"><mxGeometry x="400" y="40" width="80" height="40" as="geometry"/></mxCell><mxCell id="39" style="edgeStyle=orthogonalEdgeStyle;rounded=0;orthogonalLoop=1;jettySize=auto;html=1;entryX=0;entryY=0.5;entryDx=0;entryDy=0;" parent="1" source="17" target="36" edge="1"><mxGeometry relative="1" as="geometry"/></mxCell><mxCell id="44" style="edgeStyle=orthogonalEdgeStyle;rounded=0;orthogonalLoop=1;jettySize=auto;html=1;entryX=0;entryY=0.5;entryDx=0;entryDy=0;" parent="1" source="17" target="43" edge="1"><mxGeometry relative="1" as="geometry"/></mxCell><mxCell id="17" value="oms 2" style="rounded=1;whiteSpace=wrap;html=1;" parent="1" vertex="1"><mxGeometry x="400" y="110" width="80" height="40" as="geometry"/></mxCell><mxCell id="23" value="Start&lt;br&gt;Flask app" style="rounded=1;whiteSpace=wrap;html=1;" parent="1" vertex="1"><mxGeometry x="120" y="160" width="80" height="40" as="geometry"/></mxCell><mxCell id="25" value="Monitoring Thread" style="rounded=1;whiteSpace=wrap;html=1;" parent="1" vertex="1"><mxGeometry x="400" y="320" width="80" height="40" as="geometry"/></mxCell><mxCell id="29" value="Rayan API" style="rounded=1;whiteSpace=wrap;html=1;" parent="1" vertex="1"><mxGeometry x="520" y="20" width="80" height="20" as="geometry"/></mxCell><mxCell id="30" value="SLE websocket" style="rounded=1;whiteSpace=wrap;html=1;" parent="1" vertex="1"><mxGeometry x="520" y="50" width="100" height="20" as="geometry"/></mxCell><mxCell id="31" value="SEC websocket" style="rounded=1;whiteSpace=wrap;html=1;" parent="1" vertex="1"><mxGeometry x="520" y="80" width="100" height="20" as="geometry"/></mxCell><mxCell id="40" style="edgeStyle=orthogonalEdgeStyle;rounded=0;orthogonalLoop=1;jettySize=auto;html=1;entryX=0;entryY=0.5;entryDx=0;entryDy=0;" parent="1" source="35" target="38" edge="1"><mxGeometry relative="1" as="geometry"/></mxCell><mxCell id="46" style="edgeStyle=orthogonalEdgeStyle;rounded=0;orthogonalLoop=1;jettySize=auto;html=1;entryX=0;entryY=0.5;entryDx=0;entryDy=0;" parent="1" source="35" target="45" edge="1"><mxGeometry relative="1" as="geometry"/></mxCell><mxCell id="35" value="oms n" style="rounded=1;whiteSpace=wrap;html=1;" parent="1" vertex="1"><mxGeometry x="400" y="190" width="80" height="40" as="geometry"/></mxCell><mxCell id="36" value="SEC websocket" style="rounded=1;whiteSpace=wrap;html=1;" parent="1" vertex="1"><mxGeometry x="520" y="140" width="100" height="20" as="geometry"/></mxCell><mxCell id="38" value="SEC websocket" style="rounded=1;whiteSpace=wrap;html=1;" parent="1" vertex="1"><mxGeometry x="520" y="220" width="100" height="20" as="geometry"/></mxCell><mxCell id="42" value="" style="shape=flexArrow;endArrow=classic;html=1;rounded=0;exitX=0.5;exitY=0;exitDx=0;exitDy=0;" parent="1" source="25" edge="1"><mxGeometry width="50" height="50" relative="1" as="geometry"><mxPoint x="440" y="300" as="sourcePoint"/><mxPoint x="440" y="240" as="targetPoint"/></mxGeometry></mxCell><mxCell id="43" value="Rayan API" style="rounded=1;whiteSpace=wrap;html=1;" parent="1" vertex="1"><mxGeometry x="520" y="110" width="80" height="20" as="geometry"/></mxCell><mxCell id="45" value="Rayan API" style="rounded=1;whiteSpace=wrap;html=1;" parent="1" vertex="1"><mxGeometry x="520" y="190" width="80" height="20" as="geometry"/></mxCell></root></mxGraphModel></diagram></mxfile>